# xmcd
#
# Track frame offsets: 
#        150
#        42212
#        86790
#        114862
#        148747
#        205390
#        215782
#        229727
#        236820
#
# Disc length: 3301 seconds
#
# Revision: 1
# Processed by: cddbd v1.5.2PL0 Copyright (c) Steve Scherf et al.
# Submitted via: ExactAudioCopy v0.95b4
#
DISCID=840ce309
DTITLE=John Fahey - Sea Changes and Coelacanths - A Young Person's Guide
DTITLE=To John Fahey - Part 1
DYEAR=2006
DGENRE=Blues
TTITLE0=Sharks
TTITLE1=Planaria
TTITLE2=Eels
TTITLE3=Coelacanths
TTITLE4=Juana
TTITLE5=Hard Time Empty Bottle Blues I
TTITLE6=Hard Time Empty Bottle Blues II
TTITLE7=Hard Time Empty Bottle Blues III
TTITLE8=Hard Time Empty Bottle Blues IV
EXTD=
EXTT0=
EXTT1=
EXTT2=
EXTT3=
EXTT4=
EXTT5=
EXTT6=
EXTT7=
EXTT8=
PLAYORDER=
